<svg xmlns="http://www.w3.org/2000/svg" width="646" height="476" viewBox="0 0 646 476">
<g>
<path d="M 326.43 288.11 C325.87,289.03 300.48,289.24 298.26,288.34 C297.50,288.03 299.07,285.96 302.29,283.02 C308.49,277.35 307.18,280.09 329.02,227.00 C364.90,139.78 365.28,138.91 366.91,139.22 C368.35,139.50 373.45,149.81 385.84,177.50 C394.93,197.79 422.66,258.39 427.72,269.00 C431.04,275.96 434.11,280.82 436.82,283.41 C439.07,285.56 440.68,287.70 440.40,288.16 C439.67,289.34 377.26,289.24 376.54,288.06 C376.22,287.54 377.55,286.36 379.50,285.43 C384.22,283.19 387.27,278.73 387.27,274.05 C387.27,270.78 377.25,244.92 375.17,242.83 C374.80,242.46 363.90,241.84 350.95,241.45 L 327.39 240.73 L 322.20 253.13 C318.39,262.21 317.00,266.80 317.00,270.30 C317.00,275.99 319.65,281.55 323.93,284.86 C325.61,286.15 326.74,287.62 326.43,288.11 ZM 498.55 287.92 C497.73,289.25 447.20,289.41 445.11,288.09 C444.00,287.39 444.13,287.00 445.77,286.12 C446.89,285.53 448.97,282.69 450.40,279.82 L 453.00 274.61 L 453.00 213.93 C453.00,212.18 453.00,210.47 453.00,208.81 C453.00,157.60 453.00,150.08 449.40,145.24 C448.67,144.25 447.78,143.37 446.71,142.25 L 443.61 139.00 L 471.30 139.00 C498.26,139.00 501.83,139.42 497.00,142.00 C495.91,142.59 493.99,144.96 492.75,147.28 L 490.50 151.50 L 490.50 275.50 L 492.74 279.68 C493.97,281.99 495.93,284.54 497.10,285.35 C498.26,286.17 498.92,287.33 498.55,287.92 ZM 329.65 237.25 C330.26,238.23 371.74,238.23 372.33,237.25 C372.94,236.22 351.73,187.74 350.49,187.34 C349.39,186.98 328.91,236.04 329.65,237.25 Z" fill="rgb(80,85,231)"/>
<path d="M 291.07 286.25 C278.63,292.55 263.34,287.45 257.62,275.09 C255.64,270.80 255.48,268.58 255.18,240.75 L 254.87 211.00 L 250.49 211.00 C248.09,211.00 245.89,210.64 245.62,210.20 C245.35,209.75 247.91,207.88 251.31,206.03 C254.72,204.18 262.74,199.36 269.14,195.33 C275.54,191.30 281.05,188.00 281.39,188.00 C281.72,188.00 282.00,192.45 282.00,197.89 C282.00,198.33 282.00,198.76 282.00,199.16 C281.99,204.09 281.99,206.56 283.22,207.79 C284.45,209.01 286.90,209.01 291.82,209.00 C292.22,209.00 292.64,209.00 293.08,209.00 C297.69,209.00 301.00,209.42 301.00,210.00 C301.00,210.60 297.17,211.00 291.50,211.00 L 282.00 211.00 L 282.02 238.25 C282.04,253.24 282.45,267.23 282.94,269.35 C284.18,274.70 287.53,278.00 291.72,278.00 C296.13,278.00 298.95,275.25 300.66,269.29 L 302.03 264.50 L 301.64 269.20 C301.43,271.79 300.19,276.07 298.88,278.70 C296.96,282.58 295.46,284.03 291.07,286.25 ZM 238.00 287.31 C238.00,287.69 229.69,288.00 219.53,288.00 L 201.07 288.00 L 203.28 284.25 C205.39,280.69 205.52,279.22 205.82,255.51 C205.99,241.76 205.86,229.09 205.54,227.36 C205.21,225.63 203.60,222.51 201.95,220.43 C200.30,218.36 199.29,216.32 199.72,215.92 C200.41,215.28 230.93,206.00 232.37,206.00 C232.68,206.00 233.06,223.06 233.22,243.92 C233.50,281.68 233.51,281.85 235.75,284.23 C236.99,285.55 238.00,286.94 238.00,287.31 ZM 163.24 269.69 C158.43,279.69 154.15,287.90 153.72,287.94 C152.95,288.00 149.33,280.60 131.24,242.00 C120.76,219.62 116.95,212.78 113.69,210.49 C113.48,210.35 113.26,210.21 113.07,210.09 C112.63,209.81 112.29,209.60 112.32,209.44 C112.40,208.88 116.81,208.93 136.00,208.84 C137.53,208.83 138.95,208.82 140.25,208.81 C150.74,208.75 154.06,208.73 154.23,209.44 C154.30,209.77 153.71,210.26 152.83,210.97 C152.60,211.16 152.34,211.36 152.08,211.59 C149.87,213.45 149.00,215.05 149.00,217.25 C149.00,220.17 164.36,255.49 166.09,256.56 C166.54,256.83 169.00,252.66 171.57,247.28 C185.55,218.06 185.66,217.43 177.62,211.23 L 174.73 209.00 L 179.12 208.88 C184.48,208.73 194.96,208.79 197.00,208.97 C198.09,209.07 197.90,209.53 196.30,210.64 C189.39,215.47 188.81,216.51 163.24,269.69 ZM 227.53 194.98 C223.19,197.66 215.61,197.67 211.24,195.01 C204.28,190.76 201.83,181.06 205.99,174.24 C211.94,164.49 227.57,164.47 232.61,174.21 C236.24,181.21 233.82,191.09 227.53,194.98 Z" fill="rgb(132,145,240)"/>
<path d="M 291.07 286.25 C295.46,284.03 296.96,282.58 298.88,278.70 C300.19,276.07 301.43,271.79 301.64,269.20 L 302.03 264.50 L 300.66 269.29 C300.51,269.81 300.35,270.31 300.18,270.78 C300.72,268.96 301.00,266.83 301.00,264.43 C301.00,261.79 301.46,260.00 302.14,260.00 C304.63,260.00 301.12,276.12 297.39,281.82 C296.54,283.11 293.52,285.25 290.67,286.57 C284.38,289.50 277.65,289.79 271.56,287.58 C277.71,289.71 284.76,289.45 291.07,286.25 ZM 262.18 281.68 C259.67,279.43 258.10,277.45 257.10,273.89 C257.26,274.29 257.43,274.68 257.62,275.09 C258.78,277.60 260.34,279.81 262.18,281.68 ZM 295.77 276.98 C294.60,277.67 293.25,278.00 291.72,278.00 C293.23,278.00 294.59,277.65 295.77,276.98 Z" fill="rgb(217,217,255)"/>
<path d="M 0.00 238.00 L 0.00 0.00 L 323.00 0.00 L 646.00 0.00 L 646.00 238.00 L 646.00 476.00 L 323.00 476.00 L 0.00 476.00 L 0.00 238.00 ZM 290.67 286.57 C293.52,285.25 296.54,283.11 297.39,281.82 C301.12,276.12 304.63,260.00 302.14,260.00 C301.46,260.00 301.00,261.79 301.00,264.43 C301.00,272.89 297.51,278.00 291.72,278.00 C287.53,278.00 284.18,274.70 282.94,269.35 C282.45,267.23 282.04,253.24 282.02,238.25 L 282.00 211.00 L 291.50 211.00 C297.17,211.00 301.00,210.60 301.00,210.00 C301.00,209.42 297.69,209.00 293.08,209.00 C281.54,209.00 282.00,209.46 282.00,197.89 C282.00,192.45 281.72,188.00 281.39,188.00 C281.05,188.00 275.54,191.30 269.14,195.33 C262.74,199.36 254.72,204.18 251.31,206.03 C247.91,207.88 245.35,209.75 245.62,210.20 C245.89,210.64 248.09,211.00 250.49,211.00 L 254.87 211.00 L 255.18 240.75 C255.54,274.52 255.94,276.48 263.76,283.04 C271.46,289.51 281.53,290.83 290.67,286.57 ZM 326.43 288.11 C326.74,287.62 325.61,286.15 323.93,284.86 C319.65,281.55 317.00,275.99 317.00,270.30 C317.00,266.80 318.39,262.21 322.20,253.13 L 327.39 240.73 L 350.95 241.45 C363.90,241.84 374.80,242.46 375.17,242.83 C377.25,244.92 387.27,270.78 387.27,274.05 C387.27,278.73 384.22,283.19 379.50,285.43 C377.55,286.36 376.22,287.54 376.54,288.06 C377.26,289.24 439.67,289.34 440.40,288.16 C440.68,287.70 439.07,285.56 436.82,283.41 C434.11,280.82 431.04,275.96 427.72,269.00 C422.66,258.39 394.93,197.79 385.84,177.50 C373.45,149.81 368.35,139.50 366.91,139.22 C365.28,138.91 364.90,139.78 329.02,227.00 C307.18,280.09 308.49,277.35 302.29,283.02 C299.07,285.96 297.50,288.03 298.26,288.34 C300.48,289.24 325.87,289.03 326.43,288.11 ZM 498.55 287.92 C498.92,287.33 498.26,286.17 497.10,285.35 C495.93,284.54 493.97,281.99 492.74,279.68 L 490.50 275.50 L 490.50 213.50 L 490.50 151.50 L 492.75 147.28 C493.99,144.96 495.91,142.59 497.00,142.00 C501.83,139.42 498.26,139.00 471.30,139.00 L 443.61 139.00 L 446.71 142.25 C453.17,149.01 453.00,147.03 453.00,213.93 L 453.00 274.61 L 450.40 279.82 C448.97,282.69 446.89,285.53 445.77,286.12 C444.13,287.00 444.00,287.39 445.11,288.09 C447.20,289.41 497.73,289.25 498.55,287.92 ZM 163.24 269.69 C188.81,216.51 189.39,215.47 196.30,210.64 C197.90,209.53 198.09,209.07 197.00,208.97 C194.96,208.79 184.48,208.73 179.12,208.88 L 174.73 209.00 L 177.62 211.23 C185.66,217.43 185.55,218.06 171.57,247.28 C169.00,252.66 166.54,256.83 166.09,256.56 C164.36,255.49 149.00,220.17 149.00,217.25 C149.00,215.05 149.87,213.45 152.08,211.59 C155.75,208.50 157.11,208.73 136.00,208.84 C108.91,208.97 111.27,208.80 113.69,210.49 C116.95,212.78 120.76,219.62 131.24,242.00 C149.33,280.60 152.95,288.00 153.72,287.94 C154.15,287.90 158.43,279.69 163.24,269.69 ZM 238.00 287.31 C238.00,286.94 236.99,285.55 235.75,284.23 C233.51,281.85 233.50,281.68 233.22,243.92 C233.06,223.06 232.68,206.00 232.37,206.00 C230.93,206.00 200.41,215.28 199.72,215.92 C199.29,216.32 200.30,218.36 201.95,220.43 C203.60,222.51 205.21,225.63 205.54,227.36 C205.86,229.09 205.99,241.76 205.82,255.51 C205.52,279.22 205.39,280.69 203.28,284.25 L 201.07 288.00 L 219.53 288.00 C229.69,288.00 238.00,287.69 238.00,287.31 ZM 227.53 194.98 C233.82,191.09 236.24,181.21 232.61,174.21 C227.57,164.47 211.94,164.49 205.99,174.24 C201.83,181.06 204.28,190.76 211.24,195.01 C215.61,197.67 223.19,197.66 227.53,194.98 ZM 329.65 237.25 C328.91,236.04 349.39,186.98 350.49,187.34 C351.73,187.74 372.94,236.22 372.33,237.25 C371.74,238.23 330.26,238.23 329.65,237.25 Z" fill="rgb(250,250,251)"/>
</g>
</svg>